<mxfile host="app.diagrams.net" modified="2023-03-07T20:46:48.941Z" agent="5.0 (Windows NT 10.0; Win64; x64) AppleWebKit/537.36 (KHTML, like Gecko) Chrome/109.0.0.0 Safari/537.36 OPR/95.0.0.0" etag="047pYyAqML6-2FFc-Jjq" version="21.0.2" type="github">
  <diagram name="Strona-1" id="NP0e-K3iURDknZh0OlrK">
    <mxGraphModel dx="1187" dy="684" grid="1" gridSize="10" guides="1" tooltips="1" connect="1" arrows="1" fold="1" page="1" pageScale="1" pageWidth="827" pageHeight="1169" math="0" shadow="0">
      <root>
        <mxCell id="0" />
        <mxCell id="1" parent="0" />
        <mxCell id="fhVs4mr0uELHGUwUmd4x-4" style="edgeStyle=orthogonalEdgeStyle;rounded=0;orthogonalLoop=1;jettySize=auto;html=1;" edge="1" parent="1" source="fhVs4mr0uELHGUwUmd4x-1" target="fhVs4mr0uELHGUwUmd4x-2">
          <mxGeometry relative="1" as="geometry" />
        </mxCell>
        <mxCell id="fhVs4mr0uELHGUwUmd4x-1" value="start" style="ellipse;whiteSpace=wrap;html=1;" vertex="1" parent="1">
          <mxGeometry x="330" y="330" width="120" height="80" as="geometry" />
        </mxCell>
        <mxCell id="fhVs4mr0uELHGUwUmd4x-6" style="edgeStyle=orthogonalEdgeStyle;rounded=0;orthogonalLoop=1;jettySize=auto;html=1;entryX=0.5;entryY=0;entryDx=0;entryDy=0;" edge="1" parent="1" source="fhVs4mr0uELHGUwUmd4x-2" target="fhVs4mr0uELHGUwUmd4x-5">
          <mxGeometry relative="1" as="geometry" />
        </mxCell>
        <mxCell id="fhVs4mr0uELHGUwUmd4x-2" value="input n" style="shape=parallelogram;perimeter=parallelogramPerimeter;whiteSpace=wrap;html=1;fixedSize=1;" vertex="1" parent="1">
          <mxGeometry x="330" y="440" width="120" height="60" as="geometry" />
        </mxCell>
        <mxCell id="fhVs4mr0uELHGUwUmd4x-8" style="edgeStyle=orthogonalEdgeStyle;rounded=0;orthogonalLoop=1;jettySize=auto;html=1;" edge="1" parent="1" source="fhVs4mr0uELHGUwUmd4x-5" target="fhVs4mr0uELHGUwUmd4x-7">
          <mxGeometry relative="1" as="geometry" />
        </mxCell>
        <mxCell id="fhVs4mr0uELHGUwUmd4x-5" value="tab&lt;br&gt;x=len(tab)&lt;br&gt;i=0" style="rounded=0;whiteSpace=wrap;html=1;" vertex="1" parent="1">
          <mxGeometry x="330" y="525" width="120" height="60" as="geometry" />
        </mxCell>
        <mxCell id="fhVs4mr0uELHGUwUmd4x-9" style="edgeStyle=orthogonalEdgeStyle;rounded=0;orthogonalLoop=1;jettySize=auto;html=1;entryX=0.5;entryY=0;entryDx=0;entryDy=0;" edge="1" parent="1" source="fhVs4mr0uELHGUwUmd4x-7" target="fhVs4mr0uELHGUwUmd4x-14">
          <mxGeometry relative="1" as="geometry">
            <mxPoint x="600" y="680" as="targetPoint" />
          </mxGeometry>
        </mxCell>
        <mxCell id="fhVs4mr0uELHGUwUmd4x-10" value="true" style="edgeLabel;html=1;align=center;verticalAlign=middle;resizable=0;points=[];" vertex="1" connectable="0" parent="fhVs4mr0uELHGUwUmd4x-9">
          <mxGeometry x="-0.6952" y="-4" relative="1" as="geometry">
            <mxPoint x="41" y="-4" as="offset" />
          </mxGeometry>
        </mxCell>
        <mxCell id="fhVs4mr0uELHGUwUmd4x-11" style="edgeStyle=orthogonalEdgeStyle;rounded=0;orthogonalLoop=1;jettySize=auto;html=1;entryX=0.5;entryY=0;entryDx=0;entryDy=0;" edge="1" parent="1" source="fhVs4mr0uELHGUwUmd4x-7" target="fhVs4mr0uELHGUwUmd4x-26">
          <mxGeometry relative="1" as="geometry">
            <mxPoint x="200" y="650" as="targetPoint" />
          </mxGeometry>
        </mxCell>
        <mxCell id="fhVs4mr0uELHGUwUmd4x-12" value="false" style="edgeLabel;html=1;align=center;verticalAlign=middle;resizable=0;points=[];" vertex="1" connectable="0" parent="fhVs4mr0uELHGUwUmd4x-11">
          <mxGeometry x="-0.2" y="2" relative="1" as="geometry">
            <mxPoint as="offset" />
          </mxGeometry>
        </mxCell>
        <mxCell id="fhVs4mr0uELHGUwUmd4x-7" value="i&amp;lt;x" style="shape=hexagon;perimeter=hexagonPerimeter2;whiteSpace=wrap;html=1;fixedSize=1;" vertex="1" parent="1">
          <mxGeometry x="330" y="610" width="120" height="80" as="geometry" />
        </mxCell>
        <mxCell id="fhVs4mr0uELHGUwUmd4x-16" style="edgeStyle=orthogonalEdgeStyle;rounded=0;orthogonalLoop=1;jettySize=auto;html=1;entryX=0.5;entryY=0;entryDx=0;entryDy=0;" edge="1" parent="1" source="fhVs4mr0uELHGUwUmd4x-14" target="fhVs4mr0uELHGUwUmd4x-18">
          <mxGeometry relative="1" as="geometry">
            <mxPoint x="480" y="710" as="targetPoint" />
          </mxGeometry>
        </mxCell>
        <mxCell id="fhVs4mr0uELHGUwUmd4x-22" value="true" style="edgeLabel;html=1;align=center;verticalAlign=middle;resizable=0;points=[];" vertex="1" connectable="0" parent="fhVs4mr0uELHGUwUmd4x-16">
          <mxGeometry x="-0.0614" relative="1" as="geometry">
            <mxPoint as="offset" />
          </mxGeometry>
        </mxCell>
        <mxCell id="fhVs4mr0uELHGUwUmd4x-17" style="edgeStyle=orthogonalEdgeStyle;rounded=0;orthogonalLoop=1;jettySize=auto;html=1;entryX=0;entryY=0.5;entryDx=0;entryDy=0;" edge="1" parent="1" source="fhVs4mr0uELHGUwUmd4x-14" target="fhVs4mr0uELHGUwUmd4x-20">
          <mxGeometry relative="1" as="geometry">
            <mxPoint x="700" y="710" as="targetPoint" />
          </mxGeometry>
        </mxCell>
        <mxCell id="fhVs4mr0uELHGUwUmd4x-23" value="false" style="edgeLabel;html=1;align=center;verticalAlign=middle;resizable=0;points=[];" vertex="1" connectable="0" parent="fhVs4mr0uELHGUwUmd4x-17">
          <mxGeometry x="-0.2589" y="-3" relative="1" as="geometry">
            <mxPoint as="offset" />
          </mxGeometry>
        </mxCell>
        <mxCell id="fhVs4mr0uELHGUwUmd4x-14" value="n=tab[i]" style="rhombus;whiteSpace=wrap;html=1;" vertex="1" parent="1">
          <mxGeometry x="560" y="670" width="80" height="80" as="geometry" />
        </mxCell>
        <mxCell id="fhVs4mr0uELHGUwUmd4x-25" style="edgeStyle=orthogonalEdgeStyle;rounded=0;orthogonalLoop=1;jettySize=auto;html=1;" edge="1" parent="1" source="fhVs4mr0uELHGUwUmd4x-18" target="fhVs4mr0uELHGUwUmd4x-24">
          <mxGeometry relative="1" as="geometry" />
        </mxCell>
        <mxCell id="fhVs4mr0uELHGUwUmd4x-18" value="print n" style="shape=parallelogram;perimeter=parallelogramPerimeter;whiteSpace=wrap;html=1;fixedSize=1;" vertex="1" parent="1">
          <mxGeometry x="420" y="730" width="120" height="60" as="geometry" />
        </mxCell>
        <mxCell id="fhVs4mr0uELHGUwUmd4x-21" style="edgeStyle=orthogonalEdgeStyle;rounded=0;orthogonalLoop=1;jettySize=auto;html=1;" edge="1" parent="1" source="fhVs4mr0uELHGUwUmd4x-20">
          <mxGeometry relative="1" as="geometry">
            <mxPoint x="390" y="600" as="targetPoint" />
            <Array as="points">
              <mxPoint x="767" y="600" />
            </Array>
          </mxGeometry>
        </mxCell>
        <mxCell id="fhVs4mr0uELHGUwUmd4x-20" value="i++" style="rounded=0;whiteSpace=wrap;html=1;" vertex="1" parent="1">
          <mxGeometry x="707" y="680" width="120" height="60" as="geometry" />
        </mxCell>
        <mxCell id="fhVs4mr0uELHGUwUmd4x-24" value="end" style="ellipse;whiteSpace=wrap;html=1;" vertex="1" parent="1">
          <mxGeometry x="442" y="810" width="76" height="50" as="geometry" />
        </mxCell>
        <mxCell id="fhVs4mr0uELHGUwUmd4x-28" style="edgeStyle=orthogonalEdgeStyle;rounded=0;orthogonalLoop=1;jettySize=auto;html=1;" edge="1" parent="1" source="fhVs4mr0uELHGUwUmd4x-26" target="fhVs4mr0uELHGUwUmd4x-27">
          <mxGeometry relative="1" as="geometry" />
        </mxCell>
        <mxCell id="fhVs4mr0uELHGUwUmd4x-26" value="print &quot;nie ma n&quot;&amp;nbsp;" style="shape=parallelogram;perimeter=parallelogramPerimeter;whiteSpace=wrap;html=1;fixedSize=1;" vertex="1" parent="1">
          <mxGeometry x="140" y="680" width="120" height="50" as="geometry" />
        </mxCell>
        <mxCell id="fhVs4mr0uELHGUwUmd4x-27" value="end" style="ellipse;whiteSpace=wrap;html=1;" vertex="1" parent="1">
          <mxGeometry x="170" y="750" width="60" height="40" as="geometry" />
        </mxCell>
      </root>
    </mxGraphModel>
  </diagram>
</mxfile>
